<svg xmlns="http://www.w3.org/2000/svg" style="display:none">
  <symbol id="sprite-root" viewBox="0 0 24 24"></symbol>
  <symbol id="icon-shield" viewBox="0 0 24 24">
    <path fill="currentColor" d="M12 2l7 3v6c0 5-3.5 9.7-7 11-3.5-1.3-7-6-7-11V5l7-3Zm0 2.2L7 6v4.9c0 4 2.6 7.8 5 8.9 2.4-1.1 5-4.9 5-8.9V6l-5-1.8Zm-1 4.8h2v4h3v2h-5V9Z"/>
  </symbol>
  <symbol id="icon-user-lock" viewBox="0 0 24 24">
    <path fill="currentColor" d="M15 12a4 4 0 1 0-4-4 4 4 0 0 0 4 4Zm-7 8v-1a5 5 0 0 1 5-5h4a5 5 0 0 1 5 5v1H8Zm10-8V9.5a2.5 2.5 0 0 1 5 0V12h-1V9.5a1.5 1.5 0 0 0-3 0V12h-1Zm-1 1h7v6h-7v-6Zm3 2v2h1v-2h-1Z"/>
  </symbol>
  <symbol id="icon-login" viewBox="0 0 24 24">
    <path fill="currentColor" d="M10 4h5a3 3 0 0 1 3 3v2h-2V7a1 1 0 0 0-1-1h-5v12h5a1 1 0 0 0 1-1v-2h2v2a3 3 0 0 1-3 3h-5a2 2 0 0 1-2-2V6a2 2 0 0 1 2-2Zm10.7 8.7-3 3-1.4-1.4 1.3-1.3H13v-2h4.6l-1.3-1.3 1.4-1.4 3 3a1 1 0 0 1 0 1.4Z"/>
  </symbol>
  <symbol id="icon-search" viewBox="0 0 24 24">
    <path fill="currentColor" d="M10 4a6 6 0 1 0 3.9 10.6l4.2 4.2 1.4-1.4-4.2-4.2A6 6 0 0 0 10 4Zm0 2a4 4 0 1 1 0 8 4 4 0 0 1 0-8Z"/>
  </symbol>
  <symbol id="icon-plus" viewBox="0 0 24 24">
    <path fill="currentColor" d="M11 5h2v6h6v2h-6v6h-2v-6H5v-2h6V5Z"/>
  </symbol>
  <symbol id="icon-file" viewBox="0 0 24 24">
    <path fill="currentColor" d="M7 3h7l5 5v13H7a2 2 0 0 1-2-2V5a2 2 0 0 1 2-2Zm6 1.5V9h4.5L13 4.5ZM9 12h8v2H9v-2Zm0 4h8v2H9v-2Z"/>
  </symbol>
  <symbol id="icon-logout" viewBox="0 0 24 24">
    <path fill="currentColor" d="M14 4h3a3 3 0 0 1 3 3v10a3 3 0 0 1-3 3h-3v-2h3a1 1 0 0 0 1-1V7a1 1 0 0 0-1-1h-3V4ZM4.3 12.7a1 1 0 0 1 0-1.4l3-3 1.4 1.4-1.3 1.3H15v2H7.4l1.3 1.3-1.4 1.4-3-3Z"/>
  </symbol>
  <symbol id="icon-check" viewBox="0 0 24 24">
    <path fill="currentColor" d="m9.2 16.2-3.4-3.4 1.4-1.4 2 2 7.6-7.6 1.4 1.4-9 9Z"/>
  </symbol>
  <symbol id="icon-x" viewBox="0 0 24 24">
    <path fill="currentColor" d="M6.4 5 12 10.6 17.6 5 19 6.4 13.4 12 19 17.6 17.6 19 12 13.4 6.4 19 5 17.6 10.6 12 5 6.4 6.4 5Z"/>
  </symbol>
  <symbol id="icon-refresh" viewBox="0 0 24 24">
    <path fill="currentColor" d="M12 5a7 7 0 0 1 6.3 4H16v2h6V5h-2v2.2A9 9 0 1 0 21 12h-2a7 7 0 1 1-7-7Z"/>
  </symbol>
  <symbol id="icon-admin" viewBox="0 0 24 24">
    <path fill="currentColor" d="M12 2 3 6v6c0 5.5 3.8 10.3 9 11 5.2-.7 9-5.5 9-11V6l-9-4Zm0 3.2L18 8v4c0 4.4-2.8 8.3-6 9.1-3.2-.8-6-4.7-6-9.1V8l6-2.8ZM8.5 12A1.5 1.5 0 1 0 10 13.5 1.5 1.5 0 0 0 8.5 12Zm7 0a1.5 1.5 0 1 0 1.5 1.5 1.5 1.5 0 0 0-1.5-1.5ZM12 9.5A1.5 1.5 0 1 0 13.5 11 1.5 1.5 0 0 0 12 9.5Z"/>
  </symbol>
  <symbol id="icon-user-plus" viewBox="0 0 24 24">
    <path fill="currentColor" d="M10 11a4 4 0 1 0-4-4 4 4 0 0 0 4 4Zm0 2c-3.3 0-6 2-6 4.5V20h9v-2.5c0-.9.2-1.8.6-2.5H10Zm8-1V9h2v3h3v2h-3v3h-2v-3h-3v-2h3Z"/>
  </symbol>
  <symbol id="icon-trash" viewBox="0 0 24 24">
    <path fill="currentColor" d="M9 3h6l1 2h4v2H4V5h4l1-2Zm-2 6h2v8H7V9Zm4 0h2v8h-2V9Zm4 0h2v8h-2V9ZM6 21a2 2 0 0 1-2-2V8h16v11a2 2 0 0 1-2 2H6Z"/>
  </symbol>
  <symbol id="icon-close" viewBox="0 0 24 24">
    <path fill="currentColor" d="M6.4 5 12 10.6 17.6 5 19 6.4 13.4 12 19 17.6 17.6 19 12 13.4 6.4 19 5 17.6 10.6 12 5 6.4 6.4 5Z"/>
  </symbol>
  <symbol id="icon-clock" viewBox="0 0 24 24">
    <path fill="currentColor" d="M12 3a9 9 0 1 0 9 9 9 9 0 0 0-9-9Zm0 2a7 7 0 1 1-7 7 7 7 0 0 1 7-7Zm-1 3h2v4.6l3 1.8-1 1.7-4-2.4V8Z"/>
  </symbol>
</svg>
